<svg width="497" height="210" viewBox="0 0 497 210" fill="none" xmlns="http://www.w3.org/2000/svg">
<path d="M99.9314 159.434H64.5552L99.9314 105.938H135.308L99.9314 159.434Z" fill="black"/>
<path d="M86.9881 50.7168H123.227L86.9881 105.938H50.749L86.9881 50.7168Z" fill="black"/>
<path d="M207.477 97.2548C207.477 100.535 206.686 103.611 205.104 106.482C203.581 109.352 201.15 111.666 197.811 113.424C194.53 115.181 190.371 116.06 185.333 116.06H175.051V139.61H162.749V78.274H185.333C190.078 78.274 194.12 79.0941 197.459 80.7345C200.799 82.3748 203.288 84.6302 204.929 87.5008C206.628 90.3713 207.477 93.6227 207.477 97.2548ZM184.805 106.13C188.203 106.13 190.722 105.369 192.363 103.845C194.003 102.264 194.823 100.067 194.823 97.2548C194.823 91.2794 191.484 88.2917 184.805 88.2917H175.051V106.13H184.805Z" fill="black"/>
<path d="M224.999 98.4851C226.581 95.9074 228.631 93.8863 231.15 92.4218C233.728 90.9572 236.657 90.2249 239.938 90.2249V103.142H236.686C232.82 103.142 229.891 104.05 227.899 105.867C225.966 107.683 224.999 110.846 224.999 115.357V139.61H212.697V90.9279H224.999V98.4851Z" fill="black"/>
<path d="M266.326 140.401C261.639 140.401 257.421 139.376 253.672 137.326C249.923 135.217 246.964 132.258 244.797 128.45C242.688 124.642 241.633 120.249 241.633 115.269C241.633 110.29 242.717 105.896 244.885 102.088C247.111 98.28 250.128 95.3509 253.936 93.3005C257.744 91.1915 261.991 90.137 266.678 90.137C271.364 90.137 275.611 91.1915 279.419 93.3005C283.227 95.3509 286.215 98.28 288.383 102.088C290.609 105.896 291.722 110.29 291.722 115.269C291.722 120.249 290.579 124.642 288.295 128.45C286.068 132.258 283.022 135.217 279.156 137.326C275.348 139.376 271.071 140.401 266.326 140.401ZM266.326 129.68C268.552 129.68 270.632 129.153 272.565 128.099C274.557 126.986 276.139 125.345 277.31 123.178C278.482 121.01 279.068 118.374 279.068 115.269C279.068 110.641 277.838 107.097 275.377 104.636C272.975 102.117 270.017 100.858 266.502 100.858C262.987 100.858 260.028 102.117 257.627 104.636C255.283 107.097 254.112 110.641 254.112 115.269C254.112 119.897 255.254 123.471 257.539 125.99C259.882 128.45 262.811 129.68 266.326 129.68Z" fill="black"/>
<path d="M309.533 129.856H322.745V139.61H297.231V70.7168H309.533V129.856Z" fill="black"/>
<path d="M332.288 85.1282C330.121 85.1282 328.304 84.4545 326.84 83.1071C325.434 81.7011 324.731 79.9729 324.731 77.9225C324.731 75.8721 325.434 74.1732 326.84 72.8258C328.304 71.4198 330.121 70.7168 332.288 70.7168C334.456 70.7168 336.242 71.4198 337.648 72.8258C339.113 74.1732 339.845 75.8721 339.845 77.9225C339.845 79.9729 339.113 81.7011 337.648 83.1071C336.242 84.4545 334.456 85.1282 332.288 85.1282ZM338.351 90.9279V139.61H326.049V90.9279H338.351Z" fill="black"/>
<path d="M373.969 90.2249C379.768 90.2249 384.455 92.0703 388.029 95.761C391.602 99.3931 393.389 104.49 393.389 111.051V139.61H381.086V112.721C381.086 108.854 380.12 105.896 378.187 103.845C376.253 101.736 373.617 100.682 370.278 100.682C366.88 100.682 364.185 101.736 362.193 103.845C360.26 105.896 359.294 108.854 359.294 112.721V139.61H346.991V90.9279H359.294V96.9912C360.934 94.8822 363.014 93.2419 365.533 92.0703C368.11 90.84 370.922 90.2249 373.969 90.2249Z" fill="black"/>
<path d="M446.828 114.215C446.828 115.972 446.711 117.554 446.477 118.96H410.888C411.18 122.475 412.411 125.228 414.578 127.22C416.746 129.212 419.411 130.208 422.575 130.208C427.144 130.208 430.396 128.245 432.329 124.32H445.598C444.192 129.007 441.497 132.873 437.513 135.92C433.53 138.907 428.638 140.401 422.838 140.401C418.152 140.401 413.934 139.376 410.185 137.326C406.494 135.217 403.594 132.258 401.485 128.45C399.435 124.642 398.409 120.249 398.409 115.269C398.409 110.231 399.435 105.808 401.485 102C403.535 98.1922 406.406 95.263 410.097 93.2126C413.787 91.1622 418.035 90.137 422.838 90.137C427.466 90.137 431.597 91.1329 435.229 93.1247C438.919 95.1166 441.761 97.9578 443.753 101.649C445.803 105.281 446.828 109.469 446.828 114.215ZM434.086 110.7C434.028 107.536 432.885 105.017 430.659 103.142C428.433 101.209 425.709 100.243 422.487 100.243C419.441 100.243 416.863 101.18 414.754 103.055C412.704 104.871 411.444 107.419 410.975 110.7H434.086Z" fill="black"/>
</svg>
